<svg id="Layer_1" data-name="Layer 1" xmlns="http://www.w3.org/2000/svg" viewBox="0 0 1129.61 257.64"><defs><style>.cls-1{fill:#41135b;}.cls-2{fill:#fff;}.cls-3{fill:#beb6ce;}.cls-4{fill:#9cc34c;}</style></defs><title>logo_dvcampus</title><rect class="cls-1" width="1129.61" height="257.64" rx="27.18"/><path class="cls-2" d="M451,116.35a28.75,28.75,0,0,0-9.83-7.09,30,30,0,0,0-12.11-2.45q-11.22,0-18,7.26t-6.76,19.24q0,12.49,6.8,19.62t18.77,7.13a27.39,27.39,0,0,0,11.9-2.49A25.78,25.78,0,0,0,451,150v21.09a42.37,42.37,0,0,1-10.84,4.3,50.71,50.71,0,0,1-12.28,1.44q-18.82,0-30.67-12t-11.86-31.05q0-19.33,12.28-31.18t32.1-11.86A50.79,50.79,0,0,1,441.23,92,37.84,37.84,0,0,1,451,95.76Z"/><path class="cls-2" d="M545,173.56H526.71V163.18a30.37,30.37,0,0,1-26.41,13.67q-17,0-26.71-11.6t-9.75-31.77q0-19.15,10-30.93t26-11.77q9.78,0,16.75,4.09a24,24,0,0,1,10.17,11.77V93.57H545Zm-17.81-40.25q0-12.4-5.78-19.33t-16.16-6.91q-10.36,0-16.32,7.13T483,134q0,12.75,5.74,19.67t16.2,6.92A19.86,19.86,0,0,0,521,153.05Q527.22,145.55,527.21,133.31Z"/><path class="cls-2" d="M588.64,173.56H570.33v-80h17.22v13.07Q593,98.3,600,94.45a33.49,33.49,0,0,1,16.42-3.84q9.36,0,15.52,3.92a24.32,24.32,0,0,1,9.37,12q6.33-8.28,13.46-12.07A34,34,0,0,1,671,90.61a31,31,0,0,1,13.84,2.91A21.44,21.44,0,0,1,694,102a20.09,20.09,0,0,1,2.23,6.25,56.76,56.76,0,0,1,.72,10.37v54.94H678.68V132.47q0-16.12-3.42-21.23t-12.19-5.1q-10.8,0-15.4,6.88t-4.6,24.09v36.45H624.59V132.47q0-14.85-3.59-20.59t-12.36-5.74a20.22,20.22,0,0,0-9.87,2.44,18.72,18.72,0,0,0-7.09,6.76,19.21,19.21,0,0,0-2.36,6.83,107.77,107.77,0,0,0-.68,14.94Z"/><path class="cls-2" d="M721.55,211.19V93.57h18.31v13.07a24.1,24.1,0,0,1,10.25-11.73A32.77,32.77,0,0,1,767,90.78q15.94,0,25.86,11.77t9.91,30.93q0,20.18-9.74,31.77t-26.71,11.6a30.34,30.34,0,0,1-26.41-13.67v48Zm17.72-77.88q0,12.41,6.2,19.83a20.24,20.24,0,0,0,16.33,7.43q10.38,0,16.07-6.92t5.7-19.67q0-12.64-6-19.78t-16.33-7.13q-10.38,0-16.2,6.91T739.27,133.31Z"/><path class="cls-2" d="M839.85,93.57v45.06q0,11.64,4.81,16.7t15.61,5.07q10.8,0,15.61-5.07t4.81-16.7V93.57H899v39.57q0,23-9.2,33.33t-29.37,10.38q-20.51,0-29.7-10.29t-9.2-33.42V93.57Z"/><path class="cls-2" d="M914.53,159.05l15.19-8.27a15.79,15.79,0,0,0,6.24,9.11Q940.52,163,947.7,163q6.15,0,9.65-2.82a9.4,9.4,0,0,0,3.51-7.73q0-6.5-12.49-11.13c-2.81-1-5-1.86-6.5-2.54Q929,133.48,923.94,128a18.82,18.82,0,0,1-5.11-13.33,21.16,21.16,0,0,1,8.4-17.38q8.4-6.68,22.24-6.67A34.3,34.3,0,0,1,965.37,94a21,21,0,0,1,9.66,9.75l-13,8.94a12,12,0,0,0-5-6,15.42,15.42,0,0,0-8.32-2.24,13.19,13.19,0,0,0-8.39,2.49,8,8,0,0,0-3.16,6.62q0,6.25,14.17,11.39,4.47,1.6,6.92,2.62,11.06,4.4,15.82,9.92a20.35,20.35,0,0,1,4.77,13.79q0,12-8.69,18.78t-24,6.79q-11.73,0-19.49-4.39A29.84,29.84,0,0,1,914.53,159.05Z"/><path class="cls-3" d="M78.57,161.06q0-5.12-.1-9.43a32,32,0,0,0-1-7.65,14.42,14.42,0,0,0-2.76-5.6,10.49,10.49,0,0,0-5.44-3.23,27,27,0,0,1-6.63-2.75c-1.38-.92-2.08-2.49-2.08-4.71s.7-3.83,2.08-4.81a20.92,20.92,0,0,1,6.63-2.66,9.44,9.44,0,0,0,5.44-3,14.37,14.37,0,0,0,2.76-5.59,32.54,32.54,0,0,0,1-7.76q.11-4.41.1-9.51V70.37q0-10.22,5-15.71t15.23-5.5h7.51q7.9,0,7.91,5.94T106.26,61h-2.77a8.44,8.44,0,0,0-6.33,2.45q-2.37,2.46-2.37,7v31a37.47,37.47,0,0,1-1.88,13,22.2,22.2,0,0,1-4.55,7.75,15.89,15.89,0,0,1-5.83,3.92,21.43,21.43,0,0,1-5.74,1.37v.39a33.48,33.48,0,0,1,5.74,1.47,14.79,14.79,0,0,1,5.83,3.82,22.2,22.2,0,0,1,4.55,7.75,37.51,37.51,0,0,1,1.88,13v31q0,4.5,2.37,7a8.44,8.44,0,0,0,6.33,2.45h2.77q7.9,0,7.91,5.93t-7.91,5.94H98.75q-10.29,0-15.23-5.5t-5-15.7Z"/><path class="cls-3" d="M1055.53,94.32q0,5.1.1,9.42a32.51,32.51,0,0,0,1,7.65,14.29,14.29,0,0,0,2.77,5.6,10.41,10.41,0,0,0,5.44,3.23,26.45,26.45,0,0,1,6.62,2.76q2.08,1.36,2.08,4.7c0,2.23-.69,3.83-2.08,4.82a21.11,21.11,0,0,1-6.62,2.65,9.43,9.43,0,0,0-5.44,3,14.25,14.25,0,0,0-2.77,5.59,33.06,33.06,0,0,0-1,7.76c-.07,2.94-.1,6.12-.1,9.52V185q0,10.22-4.94,15.71t-15.23,5.5h-7.52q-7.9,0-7.91-5.94t7.91-5.93h2.77a8.41,8.41,0,0,0,6.33-2.45c1.58-1.64,2.37-3.95,2.37-7V154a37.75,37.75,0,0,1,1.88-13,22.2,22.2,0,0,1,4.55-7.75,15.74,15.74,0,0,1,5.83-3.91,21.19,21.19,0,0,1,5.74-1.38v-.39a33.72,33.72,0,0,1-5.74-1.47,14.79,14.79,0,0,1-5.83-3.82,22.11,22.11,0,0,1-4.55-7.75,37.71,37.71,0,0,1-1.88-13v-31q0-4.5-2.37-7a8.41,8.41,0,0,0-6.33-2.45h-2.77q-7.9,0-7.91-5.93t7.91-5.94h7.52q10.28,0,15.23,5.5t4.94,15.7Z"/><path class="cls-4" d="M210.76,175.26a39,39,0,0,1-9.85,4.75,37.4,37.4,0,0,1-11.75,1.82,39.18,39.18,0,0,1-28-11.58,40,40,0,0,1-8.73-13.4,46.65,46.65,0,0,1-3.2-17.71,48.35,48.35,0,0,1,3.46-18.49,44.48,44.48,0,0,1,9.5-14.6,43.61,43.61,0,0,1,14.26-9.6A45.26,45.26,0,0,1,194.18,93a40.7,40.7,0,0,1,8.72.86,48.1,48.1,0,0,1,7.35,2.25l.34-.17v-48h26.27v132H211.11v-4.49Zm-.17-57.2a41.88,41.88,0,0,0-6.3-2.34,27.18,27.18,0,0,0-7.35-1,21.83,21.83,0,0,0-9.16,1.82,19.09,19.09,0,0,0-6.65,4.92,21.2,21.2,0,0,0-4.06,7.35,28.81,28.81,0,0,0-1.39,9.07q0,9.51,5.19,16t15,6.48a26,26,0,0,0,8-1.2,28.7,28.7,0,0,0,6.65-3.11Z"/><path class="cls-4" d="M248.78,94.9h27.65l10,27.3q2.42,6.75,4.83,13.57T296,149.16h.35q2.42-6.57,5-13.56T306.5,122L317,94.9H343l-34.57,85H283.34Z"/><path class="cls-4" d="M341.24,166.27a14.75,14.75,0,0,1,4.66-11.06,16.3,16.3,0,0,1,22.47,0,15.45,15.45,0,0,1,0,22.12,16.28,16.28,0,0,1-22.47,0A14.74,14.74,0,0,1,341.24,166.27Z"/></svg>